<?xml version="1.0" standalone="no"?>
<!DOCTYPE svg PUBLIC "-//W3C//DTD SVG 20010904//EN"
 "http://www.w3.org/TR/2001/REC-SVG-20010904/DTD/svg10.dtd">
<svg version="1.0" xmlns="http://www.w3.org/2000/svg"
 width="300.000000pt" height="300.000000pt" viewBox="0 0 300.000000 300.000000"
 preserveAspectRatio="xMidYMid meet">
<metadata>
Created by potrace 1.11, written by Peter Selinger 2001-2013
</metadata>
<g transform="translate(0.000000,300.000000) scale(0.100000,-0.100000)"
fill="#000000" stroke="none">
<path d="M2175 2730 c-38 -10 -101 -29 -140 -44 -70 -27 -83 -28 -180 -9 -60
11 -136 6 -270 -17 -142 -25 -150 -26 -240 -34 -38 -4 -97 -11 -130 -16 -33
-5 -112 -11 -175 -15 -70 -3 -141 -13 -180 -25 -101 -30 -453 -148 -475 -160
-11 -5 -45 -19 -75 -30 -87 -33 -154 -64 -253 -120 l-58 -32 2 -753 c1 -692 3
-753 18 -748 13 5 12 2 -3 -16 -17 -18 -17 -21 -3 -15 16 6 21 17 18 37 -1 5
4 7 11 4 7 -2 12 -13 11 -23 -1 -10 0 -13 3 -6 3 6 11 9 16 6 7 -4 8 -2 4 4
-9 15 -1 15 24 2 16 -9 18 -7 15 10 -2 11 0 20 6 20 5 0 9 -6 9 -12 0 -8 5 -5
11 4 5 10 9 21 9 24 -1 4 4 11 12 15 9 6 9 9 1 9 -6 0 -14 -4 -18 -10 -3 -5
-13 -7 -23 -4 -13 5 -14 4 -4 -4 11 -7 11 -10 -1 -15 -11 -4 -15 0 -12 14 4
19 -5 25 -18 12 -4 -3 0 -17 8 -30 9 -13 12 -23 8 -23 -14 0 -28 15 -28 29 0
8 -6 15 -13 17 -7 1 -8 0 -2 -3 17 -8 11 -21 -7 -18 -10 1 -25 -3 -33 -9 -13
-9 -13 -8 -3 4 7 10 9 21 3 30 -5 9 -5 19 2 27 7 9 7 17 -2 28 -8 9 -8 15 -2
15 6 0 13 -6 15 -12 4 -10 6 -10 6 0 1 6 6 12 12 12 5 0 7 -5 4 -10 -3 -6 -1
-10 4 -10 6 0 11 5 11 10 0 6 5 10 12 10 9 0 9 -3 0 -12 -17 -17 -15 -25 7
-31 13 -3 26 3 36 17 9 11 13 16 10 9 -9 -20 4 -38 30 -39 21 -2 24 1 14 12
-9 11 -8 18 2 30 12 15 11 16 -9 10 -14 -5 -22 -3 -22 4 0 6 5 8 10 5 6 -3 10
-2 10 4 0 18 -19 22 -28 5 -5 -9 -12 -13 -14 -8 -3 5 8 19 23 32 16 13 29 19
29 13 0 -6 -5 -11 -12 -11 -6 0 1 -14 17 -30 33 -35 59 -41 28 -8 -11 13 -21
31 -22 41 -4 52 -5 54 -31 37 -8 -5 -11 -10 -6 -10 5 0 1 -9 -9 -20 -11 -13
-25 -18 -37 -14 -10 3 -18 1 -18 -5 0 -6 5 -11 12 -11 6 0 8 -3 5 -6 -4 -4
-13 -1 -22 6 -10 8 -15 9 -15 1 0 -6 -5 -11 -11 -11 -5 0 -7 5 -4 10 3 6 1 10
-6 10 -21 0 -1 13 23 14 14 1 22 7 20 16 -2 11 1 10 11 -2 19 -25 29 -22 23 5
-3 12 -3 16 0 10 3 -7 10 -13 15 -13 6 0 8 4 4 9 -7 12 31 34 44 27 5 -3 14 1
21 9 11 13 16 12 38 -15 14 -16 29 -30 35 -30 6 0 2 9 -7 19 -14 15 -15 24 -6
40 13 26 11 26 55 1 44 -25 57 -25 29 -2 -20 17 -20 20 -6 38 14 18 14 18 8 0
-8 -25 10 -45 34 -39 26 7 25 18 0 36 -19 13 -19 15 -4 21 19 7 25 4 28 -16 3
-26 18 -39 36 -33 10 3 21 1 25 -5 4 -7 12 -7 26 0 11 6 24 8 29 5 23 -14 7
20 -22 47 -24 23 -27 29 -13 26 12 -2 23 6 32 22 7 14 13 19 13 11 0 -8 -7
-22 -15 -31 -14 -15 -14 -18 0 -30 13 -11 19 -11 31 2 11 11 12 18 5 22 -6 4
-11 2 -11 -3 0 -6 -5 -11 -10 -11 -6 0 -3 11 6 25 8 13 12 30 8 37 -4 7 -3 10
1 5 5 -4 17 1 28 10 18 17 20 17 43 -12 13 -17 30 -38 39 -48 14 -16 14 -17
-10 -13 -17 3 -25 1 -23 -6 2 -6 18 -12 34 -13 27 -1 31 2 31 27 0 21 -3 25
-13 17 -16 -13 -25 10 -12 34 7 14 3 20 -24 32 l-33 15 30 -2 c22 -2 29 1 27
12 -3 12 -1 13 10 2 11 -11 10 -14 -1 -21 -8 -5 -9 -11 -3 -15 5 -3 15 1 22 9
10 12 10 19 -1 33 -13 16 -13 16 6 2 11 -8 25 -22 32 -30 10 -13 16 -12 48 3
20 9 34 13 30 7 -3 -5 -1 -10 6 -10 8 0 8 -4 -2 -16 -11 -14 -10 -15 7 -12 10
1 23 8 27 13 5 6 7 4 4 -5 -2 -8 -10 -14 -16 -12 -6 1 -11 -4 -11 -11 0 -7 9
-13 20 -14 11 -1 18 2 15 8 -4 5 -2 9 4 9 16 0 22 -18 9 -23 -7 -3 -4 -6 7 -6
21 -1 125 -103 125 -123 0 -6 3 -8 7 -5 3 4 12 -1 20 -11 8 -9 12 -11 8 -5 -4
10 0 11 17 5 13 -5 40 -8 60 -7 20 0 34 -3 32 -7 -9 -14 9 -9 27 8 13 12 19
12 25 3 5 -8 3 -10 -6 -4 -8 5 -11 3 -8 -6 2 -7 18 -14 34 -14 16 0 34 -3 40
-7 12 -8 24 -1 24 14 0 4 -3 7 -7 7 -19 -3 -33 2 -33 12 0 6 5 7 13 2 20 -12
47 -14 47 -2 0 5 4 7 10 4 5 -3 -2 -17 -18 -30 -17 -15 -31 -20 -37 -14 -15
15 -28 10 -15 -6 9 -11 10 -19 3 -26 -8 -8 -13 -7 -17 0 -4 6 -13 11 -19 11
-7 -1 0 -11 15 -23 24 -20 25 -23 9 -23 -11 0 -17 5 -14 10 4 5 1 6 -7 1 -9
-6 -11 -4 -5 5 6 9 4 11 -5 5 -9 -5 -11 -4 -6 3 4 7 2 12 -3 12 -6 0 -11 -6
-11 -12 -1 -7 -7 -2 -14 12 -8 14 -12 28 -10 32 3 5 0 8 -5 8 -6 0 -11 -5 -11
-11 0 -5 -6 -7 -12 -3 -10 6 -10 4 0 -8 8 -10 9 -19 4 -22 -6 -3 -12 1 -16 9
-3 8 -10 15 -16 15 -5 0 -2 -9 7 -20 11 -13 21 -16 27 -10 15 15 26 12 26 -6
0 -8 -4 -12 -10 -9 -5 3 -10 1 -10 -4 0 -14 6 -14 30 -1 15 8 22 6 33 -11 11
-15 16 -17 20 -7 2 7 7 10 11 7 4 -4 0 -14 -9 -22 -14 -15 -13 -16 12 -14 18
1 27 -2 25 -11 -2 -10 2 -10 18 -2 23 12 27 22 6 14 -8 -3 -17 0 -21 5 -3 6
-11 9 -16 6 -5 -4 -9 -2 -9 4 0 15 18 23 25 11 10 -17 28 -11 21 7 -4 9 12 -4
34 -28 23 -24 38 -37 34 -29 -4 8 -16 21 -26 28 -10 7 -18 18 -18 24 0 7 5 6
15 -2 20 -17 65 -20 58 -4 -5 13 14 14 35 1 6 -5 16 -6 20 -3 5 3 20 -1 35 -9
26 -13 26 -13 12 9 -15 22 -12 36 7 36 5 0 7 -4 4 -8 -2 -4 -1 -14 4 -21 6
-11 10 -9 19 7 8 15 8 23 -1 28 -7 5 -8 3 -3 -6 6 -9 4 -11 -4 -5 -9 5 -10 10
-2 18 20 20 11 30 -9 12 -23 -21 -50 -28 -50 -14 0 4 -7 6 -16 2 -11 -4 -12
-8 -4 -13 7 -5 -1 -7 -18 -7 -25 1 -29 5 -21 18 6 12 20 16 54 14 50 -3 54 2
25 35 -11 13 -20 27 -20 32 0 5 -4 7 -9 3 -5 -3 -12 -1 -15 4 -13 20 25 3 40
-18 10 -14 22 -20 31 -16 13 4 14 3 4 -9 -10 -12 -9 -15 8 -13 12 1 19 7 17
13 -7 17 26 28 36 12 11 -18 4 -33 -15 -32 -9 1 -15 -6 -14 -17 1 -11 5 -19 9
-19 4 0 5 -6 2 -14 -3 -8 -1 -23 5 -33 9 -15 10 -13 5 10 -4 17 -2 27 5 27 6
0 10 -6 9 -12 -2 -7 8 -14 22 -15 l25 -2 -25 8 c-27 10 -26 12 8 16 20 2 27
-6 23 -28 -1 -5 3 -6 8 -2 6 3 8 12 4 21 -6 16 17 16 29 -1 5 -7 8 -7 9 0 0 6
2 18 4 28 2 9 -1 17 -7 17 -6 0 -7 -8 -4 -17 5 -15 4 -15 -9 1 -11 14 -15 16
-15 5 0 -12 -2 -12 -10 1 -5 8 -10 10 -10 3 0 -6 -8 -10 -17 -9 -10 2 -21 -2
-26 -8 -4 -6 -5 2 -3 18 3 16 7 31 10 34 3 2 1 14 -5 24 -8 16 -7 24 4 35 10
11 17 12 22 4 3 -6 1 -10 -6 -9 -6 2 -14 -3 -16 -10 -3 -6 1 -10 9 -9 7 2 10
2 6 0 -14 -8 -8 -23 6 -17 7 3 21 -2 30 -11 9 -9 16 -12 16 -6 0 6 7 11 16 11
10 0 13 6 9 19 -3 10 1 23 9 30 13 11 16 8 22 -13 5 -21 9 -24 20 -15 10 8 14
8 14 0 0 -6 3 -10 8 -10 20 3 31 -2 26 -14 -3 -8 2 -14 11 -14 9 0 14 5 12 11
-3 7 9 11 32 11 23 0 35 -5 33 -13 -1 -6 2 -12 8 -12 14 0 12 26 -2 37 -7 5
-33 8 -57 7 -33 -1 -40 1 -28 8 9 5 17 14 17 20 0 7 -5 6 -15 -2 -9 -7 -15 -8
-15 -2 0 5 6 12 14 15 18 7 42 -18 26 -26 -6 -3 -5 -4 2 -3 7 2 12 11 12 20
-1 10 1 15 4 12 3 -3 12 0 20 7 11 9 11 4 -2 -15 -11 -17 -14 -28 -7 -28 6 0
14 7 17 15 5 12 9 12 28 0 13 -8 26 -12 30 -8 3 4 14 -3 22 -16 9 -12 22 -20
30 -17 7 3 18 -3 23 -12 9 -15 10 -15 11 -1 0 18 -24 42 -33 33 -3 -3 -14 3
-25 14 -11 11 -18 23 -15 26 4 3 12 -3 20 -14 7 -10 20 -17 27 -14 7 3 16 -2
19 -10 4 -9 12 -16 18 -16 8 0 7 5 -2 17 -8 9 -9 14 -2 10 6 -4 13 -4 16 0 2
5 2 2 0 -5 -1 -8 3 -12 9 -9 7 2 12 13 10 23 -2 18 -2 18 11 2 8 -10 17 -16
21 -13 3 3 2 -1 -4 -7 -5 -7 -10 -17 -10 -22 1 -6 10 0 22 14 20 24 20 24 14
3 -5 -16 -4 -22 6 -20 7 2 10 2 6 0 -13 -8 -9 -20 7 -20 21 0 27 25 7 36 -9 6
-12 11 -5 11 6 0 15 -5 18 -10 4 -6 11 -8 16 -5 5 4 9 1 9 -5 0 -6 5 -8 12 -4
7 4 8 3 4 -4 -4 -7 -1 -12 6 -12 9 0 9 -3 -2 -10 -8 -5 -13 -10 -10 -11 3 0
13 -2 23 -4 13 -2 17 1 13 12 -6 14 -4 14 16 0 13 -8 22 -20 20 -26 -1 -6 2
-11 8 -11 5 0 10 6 10 13 0 8 3 7 10 -3 5 -8 13 -15 18 -15 11 0 82 -62 82
-72 0 -4 -5 -2 -12 5 -7 7 -16 12 -22 12 -5 0 -1 -6 10 -14 15 -11 22 -12 33
-3 11 9 13 9 8 0 -4 -7 1 -14 14 -18 14 -5 19 -13 16 -25 -3 -13 0 -17 9 -13
8 3 11 10 7 17 -5 8 -3 8 8 0 8 -6 22 -10 32 -9 21 4 21 1 2 -29 -13 -19 -13
-23 -1 -23 9 0 12 7 9 16 -5 12 -3 13 6 5 7 -7 21 -9 32 -7 15 4 17 8 8 19
-18 22 -2 30 20 10 12 -11 21 -14 26 -7 3 6 1 11 -4 11 -6 0 -11 5 -11 11 0 8
4 9 13 0 8 -6 17 -8 20 -4 9 9 9 24 0 21 -5 -2 -9 0 -10 5 -6 16 -2 19 12 7
13 -11 20 -9 41 11 13 12 22 29 19 37 -3 7 9 26 26 41 19 18 27 31 20 35 -6 4
-11 2 -11 -5 0 -7 -3 -9 -6 -6 -4 4 -1 13 6 22 8 10 9 15 1 15 -6 0 -11 11
-11 25 0 36 -23 87 -54 118 -17 17 -21 27 -13 30 9 4 9 6 0 6 -21 1 -63 43
-56 55 3 6 3 8 -1 4 -4 -3 -26 10 -48 30 -22 20 -48 44 -58 52 -9 8 -35 32
-57 53 -41 39 -54 43 -227 77 -27 6 -126 13 -220 16 -111 4 -178 10 -191 18
-11 7 -33 16 -48 20 -18 4 -25 11 -20 19 13 21 12 39 -3 33 -7 -3 -13 -2 -13
2 1 4 0 9 -1 12 -4 10 -11 66 -10 93 0 33 -8 35 -19 5 -6 -15 -4 -33 6 -52 8
-15 10 -25 4 -22 -6 4 -11 2 -11 -3 0 -6 5 -11 11 -11 5 0 7 -5 3 -11 -5 -8
-9 -8 -14 1 -5 8 -9 8 -13 -3 -4 -11 0 -15 14 -12 10 2 19 0 19 -6 0 -5 7 -9
16 -9 14 0 15 -2 3 -17 -13 -15 -14 -15 -17 1 -2 10 -9 15 -16 13 -24 -10 -39
8 -27 32 9 15 9 27 1 41 -8 14 -7 26 1 43 18 33 41 57 50 51 5 -3 9 0 9 5 0
14 -16 14 -38 0 -23 -15 -72 14 -72 42 0 28 20 34 36 10 21 -30 38 -26 18 3
-11 18 -13 30 -5 43 7 14 5 23 -11 40 -20 21 -18 44 5 42 9 0 9 -2 0 -6 -22
-8 -14 -20 12 -20 14 0 25 3 25 8 0 5 -5 9 -11 9 -5 0 -7 5 -3 11 10 16 26
-15 18 -35 -5 -13 -9 -14 -20 -5 -17 14 -19 -2 -2 -19 8 -8 8 -15 -2 -27 -7
-8 -10 -18 -7 -21 3 -3 11 3 18 14 8 12 19 18 28 14 14 -5 14 -4 2 12 -11 13
-12 19 -2 29 10 9 12 8 9 -7 -1 -10 2 -21 9 -23 7 -3 10 5 9 22 -3 22 -1 23
12 13 13 -11 15 -10 9 4 -3 9 1 22 8 28 16 13 11 30 -7 30 -6 0 -8 -3 -5 -7 4
-3 2 -12 -4 -20 -10 -11 -14 -10 -26 4 -13 17 -14 16 -8 -7 6 -23 5 -24 -6 -5
-13 21 -29 35 -42 35 -5 0 -5 -4 -2 -10 3 -5 1 -10 -4 -10 -6 0 -11 3 -12 8 0
4 -2 14 -4 24 -3 14 1 14 30 -3 32 -19 34 -19 44 -2 11 17 11 17 9 -1 -2 -10
2 -21 9 -23 8 -3 10 5 7 24 -3 21 -2 24 6 13 5 -8 10 -12 10 -7 0 4 9 -2 20
-13 21 -21 27 -35 10 -25 -17 11 -11 -7 8 -21 20 -16 42 -18 42 -4 0 5 -5 9
-12 7 -7 -1 -13 8 -14 21 -1 24 11 38 20 23 4 -5 2 -12 -4 -16 -5 -3 -10 -11
-10 -17 0 -6 9 -3 20 7 11 10 20 13 20 7 0 -7 -4 -12 -10 -12 -5 0 -7 -7 -4
-15 6 -14 8 -14 18 0 10 13 14 12 36 -9 38 -36 65 -70 62 -78 -1 -5 3 -8 9 -8
13 0 75 -51 72 -59 -1 -4 14 -6 32 -5 32 2 34 0 30 -27 -2 -16 0 -27 5 -24 5
3 6 13 3 23 -3 9 -3 14 2 10 4 -4 13 -3 20 2 8 7 12 5 12 -5 0 -8 -4 -15 -9
-15 -5 0 -3 -10 3 -22 8 -14 14 -18 17 -10 2 6 8 10 12 7 5 -3 7 -12 4 -20 -4
-8 1 -18 10 -21 9 -3 16 -10 16 -16 0 -5 -6 -6 -12 -2 -7 4 -9 3 -5 -1 13 -15
36 -14 30 1 -4 10 0 12 11 8 9 -3 16 -14 17 -23 0 -10 2 -11 6 -3 2 6 10 9 15
6 7 -4 8 -2 4 4 -4 7 -3 12 3 12 5 0 11 -3 14 -7 2 -5 2 -3 1 4 -2 7 1 15 6
18 6 4 10 2 10 -4 0 -5 9 -9 19 -8 11 0 17 5 14 11 -4 5 1 7 12 2 15 -5 16 -4
5 9 -8 9 -9 15 -2 15 6 0 16 -8 21 -17 6 -11 11 -13 11 -5 0 8 5 10 13 6 8 -5
7 -2 -2 9 -12 15 -11 17 10 15 14 -2 23 2 22 9 -3 14 24 25 32 13 12 -19 26
-10 20 13 -6 17 -5 19 5 10 20 -18 62 5 54 30 -3 11 -2 17 3 14 5 -3 15 -2 22
2 10 7 11 13 2 30 -12 21 -31 21 -31 0 0 -6 4 -8 9 -4 5 3 13 0 17 -6 5 -8 3
-9 -6 -4 -8 5 -11 4 -6 -3 4 -7 -1 -10 -14 -7 -13 3 -18 0 -14 -7 5 -7 2 -8
-6 -3 -9 6 -11 4 -6 -6 4 -8 -1 -4 -12 8 -11 12 -23 19 -27 15 -3 -4 -6 -2 -5
3 6 29 -2 43 -25 43 -21 0 -23 -3 -14 -14 9 -11 9 -13 -2 -9 -14 5 -79 -48
-79 -64 0 -4 7 -8 15 -8 9 0 14 6 11 13 -6 16 21 27 41 15 11 -6 12 -10 4 -15
-6 -4 -11 -11 -11 -17 0 -5 9 -4 19 3 11 7 17 16 14 22 -4 5 -1 6 7 1 8 -5 11
-3 8 6 -3 8 -12 13 -21 11 -8 -1 -19 3 -23 9 -5 9 -2 10 9 6 10 -4 21 1 27 11
11 16 11 16 6 0 -3 -12 4 -23 24 -35 16 -9 26 -21 23 -26 -3 -5 -9 -3 -14 4
-7 11 -9 11 -9 -1 0 -12 -2 -12 -9 -1 -6 9 -11 10 -15 2 -4 -6 -2 -11 3 -11 6
0 11 -5 11 -12 0 -9 -3 -9 -12 0 -7 7 -17 12 -22 12 -6 0 -5 -4 2 -9 11 -7 10
-9 -3 -14 -11 -5 -14 -3 -10 6 4 6 0 4 -9 -7 -8 -10 -20 -15 -27 -10 -8 4 -10
3 -5 -5 4 -6 4 -10 -1 -9 -15 4 -53 -13 -48 -22 3 -5 0 -12 -6 -16 -8 -5 -9
-3 -4 6 6 9 4 11 -5 5 -9 -6 -11 -4 -5 6 7 11 5 11 -10 -1 -10 -8 -16 -10 -12
-4 4 7 -6 10 -28 9 -19 -1 -32 2 -29 7 3 4 10 5 16 2 7 -4 8 2 3 17 -12 39
-25 50 -45 39 -9 -5 -21 -6 -25 -2 -4 4 -4 -4 -1 -18 5 -17 4 -21 -2 -11 -8
11 -10 11 -15 0 -3 -8 -4 -4 -4 9 1 12 5 22 10 22 5 0 3 8 -4 17 -10 12 -11
15 -1 9 8 -5 26 2 45 16 39 30 57 41 57 35 0 -2 -18 -17 -40 -32 -22 -15 -40
-32 -40 -38 0 -5 16 3 36 18 19 15 43 28 52 30 9 2 19 4 22 4 3 1 -2 6 -10 11
-8 5 -10 10 -4 10 6 0 18 -8 25 -17 7 -10 10 -15 5 -11 -5 4 -15 0 -23 -8 -8
-8 -19 -12 -24 -8 -6 3 -16 0 -25 -6 -11 -10 -12 -16 -3 -26 6 -8 16 -14 21
-14 6 0 5 7 -2 15 -9 10 -9 15 -1 15 6 0 11 -5 11 -11 0 -5 5 -7 10 -4 6 3 10
2 10 -3 0 -6 -7 -12 -15 -16 -8 -3 -15 -11 -15 -17 0 -8 5 -7 17 2 14 12 16
12 9 0 -6 -9 -5 -12 5 -9 15 5 19 36 7 54 -5 6 2 16 18 22 14 7 22 17 19 22
-6 9 8 14 28 11 16 -2 6 17 -15 28 -17 9 -18 10 -3 5 11 -4 28 -6 38 -6 15 1
15 -1 2 -14 -8 -8 -17 -14 -21 -14 -4 1 -14 -10 -24 -24 -9 -15 -19 -24 -22
-21 -3 3 -5 -7 -5 -22 l0 -28 16 23 c9 13 33 41 54 63 20 22 37 45 37 51 0 6
6 5 16 -3 15 -12 16 -11 10 9 -5 14 -3 22 4 22 6 0 9 -4 5 -9 -8 -14 33 -40
56 -34 24 7 24 19 2 32 -10 6 -13 11 -7 11 5 0 15 -5 22 -12 8 -8 12 -8 12 -1
0 18 -24 30 -56 28 l-32 -3 35 31 c26 23 31 32 21 39 -9 7 -8 8 5 4 9 -3 17
-1 17 4 0 6 -5 10 -11 10 -6 0 -1 9 12 20 13 10 19 19 13 20 -5 0 -15 -5 -22
-10 -6 -6 -10 -7 -7 -4 2 4 -1 16 -7 28 -7 11 -12 30 -13 40 -1 11 -7 22 -14
24 -6 2 -9 8 -5 13 3 5 1 9 -4 9 -6 0 -13 8 -16 17 -6 15 -4 15 14 -2 20 -18
29 -8 9 12 -8 8 -8 13 0 17 6 4 11 12 11 18 0 6 -9 3 -20 -7 -11 -10 -20 -13
-20 -7 0 6 6 12 12 14 9 3 8 9 -5 22 -26 26 -21 30 9 7 25 -20 44 -20 44 0 0
5 -3 8 -7 8 -21 -3 -33 3 -33 17 0 9 -5 12 -12 8 -8 -5 -7 0 2 11 13 17 13 18
-1 13 -9 -4 -16 -1 -16 7 0 7 7 11 16 8 9 -3 6 4 -8 17 -20 17 -22 23 -11 33
10 9 11 9 6 0 -4 -7 -3 -13 2 -13 14 0 21 11 15 26 -4 10 -10 11 -23 4 -15 -8
-18 -6 -15 8 1 9 -1 24 -6 34 -7 13 -5 15 12 11 16 -5 18 -8 7 -15 -10 -7 -8
-8 5 -4 12 4 16 2 11 -6 -5 -7 -3 -8 6 -3 9 5 11 4 6 -3 -5 -8 -2 -10 8 -6 9
3 16 1 16 -6 0 -6 -4 -8 -10 -5 -5 3 -10 1 -10 -4 0 -14 13 -14 28 1 14 14 16
32 3 23 -5 -3 -15 1 -23 8 -7 8 -24 19 -36 26 -12 7 -20 16 -17 20 3 5 -2 12
-11 15 -8 3 -12 10 -9 16 3 5 0 10 -7 10 -9 0 -9 3 2 10 14 9 13 11 -9 14 -21
3 -22 15 -2 25 18 10 20 9 15 -6 -5 -14 -4 -15 4 -4 9 13 13 13 29 0 17 -13
17 -13 3 5 -14 18 -13 19 3 13 11 -4 16 -3 12 3 -3 6 -14 10 -23 10 -13 0 -9
7 13 28 17 15 25 23 18 19 -14 -10 -33 -1 -33 15 0 6 8 20 17 30 22 24 26 48
7 41 -16 -6 -46 15 -39 27 3 5 1 11 -5 15 -6 4 -8 10 -5 15 3 4 -3 14 -13 21
-15 13 -16 12 -3 -3 7 -10 10 -18 6 -18 -4 0 -2 -7 5 -15 8 -9 9 -15 2 -15 -6
0 -13 4 -17 9 -3 6 -14 9 -25 8 -10 -1 -16 -5 -14 -9 3 -4 0 -8 -6 -8 -6 0 -8
-5 -4 -11 5 -8 10 -7 16 4 7 13 13 14 32 6 23 -11 32 -39 12 -39 -6 0 -4 -5 4
-10 8 -5 11 -10 6 -10 -5 0 -2 -7 5 -17 15 -17 14 -19 -4 -42 -10 -12 -9 -13
2 -6 10 5 12 4 7 -3 -11 -18 -27 -14 -24 4 2 10 -2 19 -8 21 -10 3 -11 -12 -5
-50 0 -4 9 -3 19 2 14 7 19 6 19 -4 0 -8 -4 -12 -8 -9 -5 3 -17 0 -28 -6 -14
-7 -22 -7 -27 2 -4 7 -3 8 4 4 7 -4 12 -1 12 9 0 9 -5 13 -11 9 -8 -4 -8 -1
-1 12 6 11 11 24 11 29 1 6 7 11 14 11 31 4 32 4 22 12 -12 8 -35 48 -35 59 0
5 5 1 11 -7 9 -13 10 -13 6 0 -5 19 -33 20 -29 1 3 -12 0 -12 -12 -2 -12 10
-15 9 -13 -8 1 -15 6 -19 18 -16 26 9 34 -15 11 -31 -12 -8 -19 -21 -16 -28 3
-8 0 -17 -7 -22 -9 -5 -10 -2 -6 9 4 11 -5 27 -26 47 -23 22 -26 29 -12 24 16
-6 18 -4 8 6 -10 11 -9 17 3 32 13 13 16 37 15 103 -1 47 -4 91 -7 99 -6 16
-14 16 -99 -4z m228 -242 c-19 -21 -27 -16 -29 16 -1 20 2 21 22 12 21 -10 21
-12 7 -28z m-8 -57 c3 -5 2 -12 -3 -15 -5 -3 -9 1 -9 9 0 17 3 19 12 6z m-722
-595 c4 -10 1 -13 -9 -9 -15 6 -19 23 -5 23 5 0 11 -7 14 -14z m99 -10 c7 4 8
2 4 -5 -9 -13 -26 -5 -25 12 0 9 2 8 6 -1 2 -6 10 -9 15 -6z m658 -50 c0 -2
-7 -7 -16 -10 -8 -3 -12 -2 -9 4 6 10 25 14 25 6z m-47 -51 c-10 -13 -22 -25
-27 -25 -5 0 -3 6 3 13 6 8 7 18 3 22 -4 5 -1 5 6 1 6 -4 12 -2 12 3 0 6 5 11
10 11 6 0 3 -11 -7 -25z m-769 -4 c3 -4 0 -16 -8 -26 -11 -15 -13 -16 -13 -1
0 9 5 16 11 16 6 0 4 5 -4 10 -9 6 -10 10 -3 10 6 0 14 -4 17 -9z m729 -6 c-3
-9 -8 -14 -10 -11 -3 3 -2 9 2 15 9 16 15 13 8 -4z m113 0 c17 -16 14 -18 -10
-9 -9 3 -16 10 -16 15 0 13 9 11 26 -6z m-159 -41 c-3 -3 -12 -4 -19 -1 -8 3
-5 6 6 6 11 1 17 -2 13 -5z m-193 -69 c-4 -8 -8 -15 -10 -15 -2 0 -4 7 -4 15
0 8 4 15 10 15 5 0 7 -7 4 -15z m-528 -4 c-3 -5 1 -14 9 -21 7 -6 11 -19 8
-28 -5 -14 -4 -15 8 -4 11 10 11 16 1 32 -11 19 -11 19 7 8 27 -17 8 -61 -23
-53 -17 5 -15 1 8 -19 26 -22 28 -27 18 -48 -11 -22 -11 -22 -6 5 7 33 -3 36
-17 5 -9 -21 -9 -21 -4 4 4 20 0 31 -14 40 -18 11 -18 12 3 29 11 10 16 18 11
19 -6 0 -17 -6 -25 -12 -12 -11 -12 -10 -2 3 7 9 12 21 11 25 -2 14 0 24 7 24
3 0 3 -4 0 -9z m924 4 c0 -2 -10 -10 -22 -16 -21 -11 -22 -11 -9 4 13 16 31
23 31 12z m-306 -46 c-1 -8 -3 -21 -5 -29 -3 -9 4 -15 19 -16 45 -3 47 -4 30
-15 -11 -6 -24 -6 -35 0 -18 9 -25 11 -43 11 -11 0 -7 41 5 60 9 15 30 6 29
-11z m-626 -64 c-3 -3 -9 2 -12 12 -6 14 -5 15 5 6 7 -7 10 -15 7 -18z m-828
-330 c18 -21 35 -19 19 3 -12 15 -12 16 2 5 9 -7 19 -10 22 -6 4 3 7 2 7 -3 0
-5 -8 -14 -17 -19 -14 -8 -23 -6 -40 12 -12 13 -18 23 -14 23 5 0 14 -7 21
-15z m-80 -67 c0 -6 -6 -5 -15 2 -8 7 -15 14 -15 16 0 2 7 1 15 -2 8 -4 15
-11 15 -16z m-194 -57 c-3 -4 6 -13 19 -19 14 -7 25 -16 25 -21 0 -17 -19 -22
-37 -11 -16 9 -15 10 5 5 13 -4 22 -2 22 4 0 10 -7 13 -26 10 -8 -1 -24 22
-24 34 0 4 5 7 11 7 5 0 8 -4 5 -9z m-16 -37 c0 -8 -5 -14 -12 -14 -6 0 -8 3
-5 6 3 4 1 16 -5 28 -10 19 -10 20 5 7 10 -7 17 -20 17 -27z m-65 -14 c3 -5 1
-10 -4 -10 -6 0 -11 5 -11 10 0 6 2 10 4 10 3 0 8 -4 11 -10z m1528 -34 c4
-10 1 -13 -8 -9 -8 3 -12 9 -9 14 7 12 11 11 17 -5z m67 -1 c7 -9 8 -15 2 -15
-5 0 -12 7 -16 15 -3 8 -4 15 -2 15 2 0 9 -7 16 -15z m-213 -17 c0 -13 -1 -18
-4 -11 -2 7 -10 10 -18 7 -7 -3 -16 0 -21 7 -4 7 -3 10 2 6 6 -3 16 -2 24 4 8
5 15 9 15 9 1 0 1 -10 2 -22z m258 12 c-3 -5 -12 -10 -18 -10 -7 0 -6 4 3 10
19 12 23 12 15 0z m-351 -15 c-4 -8 -11 -12 -16 -9 -6 4 -5 10 3 15 19 12 19
11 13 -6z m-136 -13 c2 -7 -1 -12 -8 -12 -6 0 -8 5 -5 10 3 6 1 10 -4 10 -6 0
-11 -4 -11 -10 0 -5 -5 -10 -11 -10 -8 0 -7 5 1 15 14 17 31 16 38 -3z m32 8
c0 -5 -2 -10 -4 -10 -3 0 -8 5 -11 10 -3 6 -1 10 4 10 6 0 11 -4 11 -10z m95
-28 c-6 -8 -35 12 -35 24 0 11 4 10 18 -3 10 -10 18 -19 17 -21z m-272 13 c4
-6 11 -4 17 5 11 17 13 10 4 -14 -5 -14 -9 -14 -26 -2 -11 8 -27 12 -34 9 -8
-3 -14 -1 -14 5 0 12 43 10 53 -3z m69 -24 c15 -18 14 -19 -16 -20 -79 -2 -96
-5 -93 -15 2 -6 11 -10 21 -8 11 2 15 -3 13 -15 -6 -37 -16 -44 -43 -27 -13 9
-24 13 -24 9 0 -4 -7 -2 -15 5 -14 11 -19 7 -16 -12 2 -15 -8 -8 -19 12 -8 15
-5 24 17 44 15 14 30 23 35 20 4 -3 8 0 8 5 0 6 5 11 11 11 6 0 4 -9 -5 -22
-16 -22 -7 -48 16 -48 6 0 5 6 -2 15 -12 15 -5 39 10 30 5 -3 11 -1 15 5 3 5
1 10 -6 10 -7 0 -9 3 -5 7 4 5 14 0 21 -10 13 -18 14 -18 32 1 23 26 25 26 45
3z m-1437 -11 c-3 -5 -1 -10 6 -10 7 0 10 -3 6 -6 -9 -9 -28 6 -22 17 4 5 8 9
11 9 3 0 2 -4 -1 -10z m89 -45 c-4 -8 -10 -15 -15 -15 -4 0 -6 7 -3 15 4 8 10
15 15 15 4 0 6 -7 3 -15z m1363 -19 c0 -16 -44 -19 -54 -3 -3 6 -1 7 5 3 7 -4
20 -2 29 3 10 6 18 11 19 11 0 0 1 -6 1 -14z m1160 -51 c-23 -22 -33 -18 -12
5 10 11 20 18 23 16 2 -3 -3 -12 -11 -21z m-117 -85 c0 -5 -2 -10 -4 -10 -3 0
-8 5 -11 10 -3 6 -1 10 4 10 6 0 11 -4 11 -10z"/>
<path d="M2383 2495 c0 -8 4 -12 9 -9 5 3 6 10 3 15 -9 13 -12 11 -12 -6z"/>
<path d="M2169 1563 c0 -5 -2 -16 -4 -25 -2 -10 1 -20 5 -23 5 -3 7 4 5 15 -2
11 0 20 6 20 5 0 9 5 9 10 0 11 -20 14 -21 3z"/>
<path d="M1435 890 c-3 -5 -1 -10 4 -10 6 0 11 5 11 10 0 6 -2 10 -4 10 -3 0
-8 -4 -11 -10z"/>
<path d="M1290 855 c-13 -14 -18 -25 -12 -25 7 0 12 5 12 10 0 6 5 10 10 10 6
0 9 -5 8 -11 -2 -6 5 -13 15 -14 17 -3 17 -2 4 13 -8 9 -12 23 -10 30 7 18 -1
15 -27 -13z"/>
<path d="M1361 826 c-8 -10 -9 -16 -1 -21 5 -3 10 -5 11 -3 4 18 7 38 4 38 -1
0 -8 -6 -14 -14z"/>
<path d="M2385 2580 c-3 -6 1 -7 9 -4 18 7 21 14 7 14 -6 0 -13 -4 -16 -10z"/>
<path d="M2394 2559 c-10 -17 9 -30 26 -18 12 9 12 10 -4 5 -13 -5 -17 -2 -12
9 6 17 0 20 -10 4z"/>
<path d="M2271 2526 c-9 -10 -9 -16 -1 -21 6 -4 14 -4 17 -1 4 3 1 6 -7 6 -10
0 -10 3 0 15 7 8 10 15 7 15 -2 0 -10 -6 -16 -14z"/>
<path d="M2270 2481 c0 -17 34 -22 49 -6 10 10 11 15 3 15 -7 0 -12 -5 -12
-12 0 -9 -3 -9 -12 0 -14 14 -28 16 -28 3z"/>
<path d="M2415 2470 c-10 -11 -14 -20 -9 -20 5 0 15 9 22 20 7 11 11 20 9 20
-2 0 -12 -9 -22 -20z"/>
<path d="M2415 2400 c3 -5 8 -10 11 -10 2 0 4 5 4 10 0 6 -5 10 -11 10 -5 0
-7 -4 -4 -10z"/>
<path d="M2374 2326 c0 -14 4 -22 8 -20 5 3 6 10 3 15 -4 5 -1 9 5 9 6 0 8 5
5 10 -11 18 -21 11 -21 -14z"/>
<path d="M2399 2313 c0 -5 -2 -16 -4 -25 -2 -10 0 -18 5 -18 4 0 8 11 8 25 0
22 -7 36 -9 18z"/>
<path d="M2428 2263 c7 -3 16 -2 19 1 4 3 -2 6 -13 5 -11 0 -14 -3 -6 -6z"/>
<path d="M2485 2200 c-3 -6 1 -7 9 -4 18 7 21 14 7 14 -6 0 -13 -4 -16 -10z"/>
<path d="M2435 2177 c-20 -16 -11 -42 12 -33 8 3 12 2 9 -2 -2 -4 -1 -14 5
-22 6 -10 9 -11 9 -2 0 6 5 12 11 12 8 0 8 -5 -1 -15 -9 -11 -9 -15 -1 -15 7
0 9 -5 5 -11 -5 -8 -10 -6 -16 5 -5 9 -13 14 -19 11 -5 -3 -6 1 -3 9 3 9 1 16
-4 16 -6 0 -9 -9 -7 -20 5 -28 15 -41 25 -35 4 3 13 -1 19 -9 9 -10 8 -15 -4
-20 -9 -3 -14 -10 -11 -15 3 -5 -1 -12 -10 -15 -9 -4 -12 -11 -7 -18 4 -7 9
-22 10 -33 7 -65 21 -95 38 -89 19 8 27 -12 10 -26 -7 -6 -12 -17 -9 -23 2 -7
-7 -24 -21 -39 -31 -34 -31 -35 0 -35 26 0 34 12 13 21 -7 3 0 3 15 1 24 -3
28 -1 22 13 -13 32 -15 62 -6 62 6 0 8 -8 6 -18 -2 -10 1 -25 6 -33 7 -11 9
-11 9 -1 0 7 5 10 11 6 7 -4 8 -9 0 -17 -6 -6 -7 -16 -1 -28 7 -11 7 -20 0
-24 -17 -10 -11 -25 15 -37 13 -6 23 -14 20 -17 -2 -4 5 -7 16 -7 18 0 18 2 5
12 -9 6 -13 14 -9 18 4 4 -1 4 -11 0 -16 -6 -17 -4 -7 14 7 12 17 22 23 22 6
0 8 3 5 6 -4 4 -13 1 -21 -5 -12 -10 -15 -9 -13 8 1 19 10 26 30 22 5 -1 6 3
2 9 -4 7 -12 7 -25 0 -27 -14 -34 -12 -20 5 10 12 8 18 -11 35 -13 10 -20 19
-16 20 4 0 3 9 -3 20 -6 12 -7 20 -1 20 5 0 11 -5 13 -12 3 -8 7 -6 10 4 5 12
1 15 -18 13 -14 -1 -24 3 -24 11 0 7 8 11 20 9 16 -3 18 0 12 13 -10 21 -10
33 2 51 6 9 5 12 -1 8 -19 -12 -25 27 -7 40 10 7 13 13 8 13 -6 0 -16 -6 -23
-12 -11 -11 -13 -10 -8 4 3 10 2 20 -3 23 -6 4 -10 11 -10 17 0 7 6 6 15 -2
10 -9 15 -9 15 -1 0 6 -5 11 -11 11 -5 0 -7 6 -3 13 6 10 4 10 -7 0 -22 -22
-33 -14 -13 9 10 12 13 18 7 14 -14 -8 -17 5 -5 20 4 5 6 8 3 7 -8 -5 -41 18
-41 28 0 6 4 8 8 5 4 -2 14 0 22 6 12 8 12 9 -2 4 -10 -3 -18 -1 -18 4 0 14
-13 12 -35 -3z m19 -12 c-4 -8 -11 -12 -16 -9 -6 4 -5 10 3 15 19 12 19 11 13
-6z m48 -133 c-8 -2 -7 -10 4 -27 15 -23 27 -65 18 -65 -3 0 -15 5 -26 11 -13
7 -18 7 -14 1 3 -6 3 -13 -2 -16 -4 -2 -9 4 -9 15 -1 15 3 18 22 15 18 -3 22
-1 18 11 -4 9 -8 11 -12 4 -5 -8 -13 -7 -26 3 -15 11 -17 17 -7 28 6 8 8 19 4
23 -4 5 -1 5 6 1 6 -4 12 -2 12 4 0 6 5 8 12 4 9 -6 9 -9 0 -12z m28 -113 c0
-5 -3 -8 -7 -8 -20 3 -34 -2 -28 -11 3 -5 0 -7 -9 -4 -13 5 -12 8 1 24 15 18
43 17 43 -1z m-20 -119 c0 -5 -5 -10 -11 -10 -5 0 -7 5 -4 10 3 6 8 10 11 10
2 0 4 -4 4 -10z m60 -80 c0 -5 -4 -10 -10 -10 -5 0 -10 5 -10 10 0 6 5 10 10
10 6 0 10 -4 10 -10z"/>
<path d="M2476 2013 c-11 -11 -6 -23 9 -23 8 0 15 4 15 9 0 13 -16 22 -24 14z"/>
<path d="M2527 2099 c7 -7 15 -10 18 -7 3 3 -2 9 -12 12 -14 6 -15 5 -6 -5z"/>
<path d="M2550 1940 c0 -5 5 -10 11 -10 5 0 7 5 4 10 -3 6 -8 10 -11 10 -2 0
-4 -4 -4 -10z"/>
<path d="M2550 1841 c0 -6 4 -13 10 -16 6 -3 7 1 4 9 -7 18 -14 21 -14 7z"/>
<path d="M1740 1755 c7 -8 17 -12 23 -8 6 4 7 1 2 -7 -6 -9 -4 -11 5 -5 10 6
9 11 -5 22 -25 18 -41 17 -25 -2z"/>
<path d="M1844 1763 c6 -12 -5 -18 -26 -14 -5 0 -8 -4 -8 -10 0 -5 -4 -8 -8
-5 -4 2 -14 0 -22 -5 -13 -7 -13 -10 -1 -18 9 -6 10 -11 2 -15 -6 -4 -11 -11
-11 -16 0 -5 10 1 23 13 13 12 22 25 20 28 -1 4 8 6 22 5 22 -1 29 -7 27 -26
0 -3 7 -6 17 -6 26 0 21 22 -12 53 -17 16 -27 22 -23 16z m40 -52 c-3 -3 -10
2 -15 11 -6 10 -16 15 -27 12 -14 -5 -15 -4 -2 5 11 7 19 6 32 -6 10 -9 16
-19 12 -22z"/>
<path d="M2506 1754 c-3 -9 -4 -20 -1 -24 3 -5 0 -20 -6 -33 -8 -18 -18 -24
-36 -22 -14 1 -22 -2 -20 -9 2 -6 12 -10 21 -10 14 2 15 -1 4 -15 -11 -14 -11
-14 3 -4 9 7 19 10 23 6 4 -4 4 0 1 8 -3 9 1 22 9 29 9 7 13 16 10 21 -3 5 0
9 6 9 7 0 10 -6 7 -14 -8 -20 15 -37 33 -26 8 5 11 12 7 17 -5 4 -13 1 -18 -7
-9 -13 -10 -13 -6 1 3 9 1 21 -5 27 -8 8 -8 15 0 24 12 15 5 32 -15 35 -6 1
-14 -5 -17 -13z m29 -14 c-3 -5 -12 -10 -18 -10 -7 0 -6 4 3 10 19 12 23 12
15 0z"/>
<path d="M1722 1733 c-6 -2 -10 -9 -6 -14 3 -5 -10 -16 -30 -24 -41 -17 -48
-26 -36 -45 5 -9 5 -19 -1 -27 -8 -9 -16 -6 -35 15 -23 27 -23 27 -24 4 0 -13
4 -21 9 -18 5 3 11 -1 15 -9 7 -19 33 -19 43 0 8 13 12 13 27 2 15 -11 17 -17
7 -35 -7 -13 -9 -27 -6 -32 3 -6 0 -10 -7 -10 -8 0 -9 -3 -3 -8 6 -4 10 -14
10 -22 -2 -22 14 -50 28 -49 9 0 9 2 0 6 -19 7 -16 23 5 24 14 0 14 2 -3 9
-11 5 -16 9 -11 9 5 1 2 8 -5 17 -12 15 -11 16 9 10 18 -6 22 -4 19 13 -2 11
-6 24 -10 27 -4 4 -7 14 -7 22 0 9 6 7 18 -9 13 -15 21 -19 26 -10 4 7 2 10
-5 9 -6 -2 -14 3 -16 10 -3 6 1 12 7 12 9 0 9 4 -1 16 -12 15 -11 16 11 10
l25 -7 -23 14 c-12 7 -20 16 -16 20 4 4 14 1 23 -6 14 -11 14 -10 2 6 -10 13
-11 21 -3 29 8 8 8 17 1 30 -10 19 -15 20 -37 11z m18 -53 c-9 -14 -16 -35
-14 -47 4 -22 -4 -23 -39 -8 -15 6 -15 10 -5 23 11 13 10 15 -4 9 -10 -3 -18
-2 -18 2 0 5 7 11 15 15 8 3 15 1 15 -5 0 -6 5 -7 10 -4 6 4 8 11 5 16 -4 5 1
12 9 15 9 3 16 13 16 20 0 12 2 12 14 2 12 -11 11 -17 -4 -38z m-24 -125 c1
-8 -4 -11 -12 -8 -15 6 -18 16 -7 26 8 9 16 1 19 -18z"/>
<path d="M1720 1690 c-8 -5 -11 -10 -6 -10 5 0 1 -9 -9 -20 -14 -16 -16 -23
-7 -32 9 -9 12 -9 13 0 2 21 4 26 17 50 14 25 13 26 -8 12z"/>
<path d="M1830 1700 c0 -5 5 -10 10 -10 6 0 10 5 10 10 0 6 -4 10 -10 10 -5 0
-10 -4 -10 -10z"/>
<path d="M2563 1652 c-12 -8 -12 -36 0 -48 3 -4 5 3 2 14 -2 13 3 26 13 32 9
5 13 9 7 10 -5 0 -15 -4 -22 -8z"/>
<path d="M2350 1607 c0 -7 -7 -22 -15 -33 -13 -16 -14 -17 -9 -1 4 12 2 17 -7
15 -16 -4 -59 -39 -59 -49 0 -10 33 -4 62 12 13 8 27 13 32 14 12 0 17 55 5
55 -5 0 -9 -6 -9 -13z m-40 -46 c0 -5 -7 -12 -16 -15 -14 -5 -15 -4 -4 9 14
17 20 19 20 6z"/>
<path d="M2230 1540 c0 -5 5 -10 11 -10 5 0 7 5 4 10 -3 6 -8 10 -11 10 -2 0
-4 -4 -4 -10z"/>
<path d="M2414 1542 c3 -6 -2 -15 -11 -21 -10 -6 -13 -11 -7 -11 20 0 37 27
23 36 -7 4 -9 3 -5 -4z"/>
<path d="M2470 1540 c0 -5 5 -10 11 -10 5 0 7 5 4 10 -3 6 -8 10 -11 10 -2 0
-4 -4 -4 -10z"/>
<path d="M1630 1525 c0 -5 5 -17 10 -25 5 -8 10 -10 10 -5 0 6 -5 17 -10 25
-5 8 -10 11 -10 5z"/>
<path d="M2090 1519 c0 -5 5 -7 10 -4 6 3 10 8 10 11 0 2 -4 4 -10 4 -5 0 -10
-5 -10 -11z"/>
<path d="M2115 1500 c3 -5 8 -10 11 -10 2 0 4 5 4 10 0 6 -5 10 -11 10 -5 0
-7 -4 -4 -10z"/>
<path d="M690 1100 c-12 -16 -17 -30 -12 -30 5 0 16 9 23 21 10 14 20 18 32
13 14 -5 15 -9 6 -20 -20 -24 4 -15 34 14 17 15 27 21 23 14 -5 -8 -1 -21 10
-33 9 -10 14 -19 9 -19 -4 0 -2 -7 5 -15 9 -11 16 -12 25 -5 9 8 15 8 20 0 8
-14 25 -13 25 2 0 6 -3 9 -6 5 -4 -3 -13 1 -21 9 -8 8 -19 12 -23 9 -11 -7
-35 35 -32 53 3 15 0 15 -33 0 -19 -9 -28 -9 -37 0 -18 18 -24 15 -48 -18z
m160 -46 c0 -8 -19 -13 -24 -6 -3 5 1 9 9 9 8 0 15 -2 15 -3z"/>
<path d="M583 1096 c-17 -20 -20 -48 -5 -53 6 -3 10 1 9 9 -2 7 -2 10 0 6 10
-17 20 -6 20 22 0 33 -6 36 -24 16z"/>
<path d="M706 1085 c-3 -8 4 -21 17 -30 l22 -16 -23 -18 c-23 -17 -75 -22 -88
-8 -4 4 -12 7 -18 7 -6 -1 3 -12 19 -26 22 -18 24 -23 10 -18 -16 5 -17 4 -5
-5 12 -9 13 -14 3 -31 -16 -24 -16 -30 -3 -30 6 0 9 6 8 13 -2 6 3 11 10 9 10
-2 11 4 6 20 l-7 23 22 -20 c13 -11 21 -14 19 -8 -2 6 14 23 35 37 39 27 52
32 43 18 -2 -4 4 -8 14 -9 18 -2 18 -1 2 16 -9 10 -25 17 -35 15 -17 -3 -17
-2 0 26 18 31 28 31 28 -1 0 -10 4 -18 9 -18 5 0 13 -5 18 -13 7 -9 8 -7 3 7
-4 11 -8 26 -9 33 -5 28 -25 36 -45 18 -22 -20 -43 -14 -34 9 3 8 1 15 -5 15
-5 0 -12 -7 -16 -15z m42 -81 c-7 -7 -20 -14 -28 -16 -8 -2 -20 -9 -26 -17
-10 -12 -13 -11 -23 6 -9 18 -8 21 7 18 9 -1 25 3 34 10 10 6 25 12 33 12 13
0 14 -3 3 -13z"/>
<path d="M610 1081 c0 -5 6 -11 12 -13 7 -3 -6 -16 -29 -31 -41 -26 -62 -47
-46 -47 5 0 14 5 21 12 10 9 16 8 29 -5 14 -14 15 -17 3 -18 -10 0 -8 -4 5 -9
l20 -9 -20 -1 -20 -1 20 -8 c26 -11 39 -3 24 15 -6 8 -8 14 -3 14 4 0 -3 12
-17 27 -13 14 -19 23 -13 20 7 -4 17 0 24 8 7 8 16 12 21 9 5 -3 4 6 -3 20
-11 25 -28 35 -28 17z"/>
<path d="M765 1049 c-4 -6 -5 -12 -2 -15 2 -3 7 2 10 11 7 17 1 20 -8 4z"/>
<path d="M700 1040 c0 -5 7 -10 16 -10 8 0 12 5 9 10 -3 6 -10 10 -16 10 -5 0
-9 -4 -9 -10z"/>
<path d="M900 1041 c0 -5 7 -12 16 -15 14 -5 15 -4 4 9 -14 17 -20 19 -20 6z"/>
<path d="M851 1023 c3 -20 -2 -27 -11 -13 -8 13 -10 12 -10 -2 0 -22 13 -23
29 -4 8 10 9 16 1 21 -6 4 -10 3 -9 -2z"/>
<path d="M557 981 c-11 -12 -15 -25 -11 -36 5 -13 4 -16 -5 -10 -10 6 -11 3
-2 -12 8 -17 6 -22 -12 -30 -12 -6 -31 -7 -42 -2 -11 4 -15 8 -10 9 53 8 66
17 45 30 -23 15 -34 12 -20 -5 10 -12 8 -14 -8 -10 -12 2 -26 -3 -32 -11 -7
-7 -16 -11 -21 -8 -5 3 -6 -3 -3 -13 4 -14 3 -15 -4 -4 -7 10 -14 10 -30 2
-14 -7 -23 -8 -27 -1 -4 6 -11 7 -17 4 -7 -4 -6 -9 2 -14 8 -5 8 -9 -3 -13
-10 -4 -14 0 -12 11 2 9 4 21 4 26 1 4 8 5 17 2 12 -4 14 -1 9 14 -5 15 0 23
22 31 40 17 64 18 70 3 4 -10 11 -10 31 4 14 9 23 11 19 5 -5 -7 -4 -13 2 -13
6 0 11 7 11 15 0 18 -5 18 -30 5 -11 -6 -21 -6 -24 -1 -8 12 -66 7 -94 -8 -20
-10 -29 -9 -58 8 -42 25 -40 25 -48 5 -9 -24 12 -46 34 -34 12 6 23 5 36 -5
17 -13 17 -14 1 -9 -13 5 -16 2 -11 -9 3 -8 1 -18 -5 -22 -8 -4 -8 -12 -1 -26
12 -21 6 -39 -12 -39 -7 0 -7 4 0 13 7 8 7 18 2 27 -10 15 -11 13 -14 -27 -1
-12 7 -18 20 -19 12 -1 28 -4 35 -8 8 -4 6 -1 -4 7 -16 14 -16 16 -2 31 9 9
22 16 28 16 7 0 3 -7 -7 -15 -11 -8 -15 -15 -9 -15 7 0 15 5 18 10 3 6 11 10
17 10 6 0 5 -7 -3 -17 -13 -16 -12 -17 3 -4 10 7 16 17 13 21 -3 5 -1 11 5 15
10 6 13 -3 13 -37 0 -10 3 -15 8 -13 4 3 6 17 3 31 -4 23 -3 24 18 14 22 -11
22 -10 4 4 -11 9 -17 18 -15 21 8 8 49 -7 43 -16 -3 -5 11 0 30 12 20 11 41
17 48 13 7 -4 10 -4 6 0 -10 12 15 34 32 29 8 -3 5 2 -7 11 -15 11 -20 24 -17
41 5 29 -4 31 -29 6z m-262 -21 c-3 -5 -1 -10 6 -10 7 0 10 -3 6 -6 -9 -9 -28
6 -22 17 4 5 8 9 11 9 3 0 2 -4 -1 -10z m280 -39 c-19 -19 -32 -6 -15 14 9 11
9 15 1 15 -7 0 -9 5 -6 11 5 6 12 4 20 -8 12 -15 12 -20 0 -32z m-160 -51 c-3
-5 -12 -10 -18 -10 -7 0 -6 4 3 10 19 12 23 12 15 0z"/>
<path d="M750 971 c0 -6 4 -12 8 -15 5 -3 9 1 9 9 0 8 -4 15 -9 15 -4 0 -8 -4
-8 -9z"/>
<path d="M2690 959 c0 -5 5 -7 10 -4 6 3 10 8 10 11 0 2 -4 4 -10 4 -5 0 -10
-5 -10 -11z"/>
<path d="M201 936 c-9 -10 -9 -16 -1 -21 6 -4 9 -14 5 -23 -3 -8 4 -25 15 -37
23 -25 10 -46 -14 -26 -10 9 -15 8 -19 -3 -4 -9 -2 -18 4 -22 6 -4 3 -14 -8
-27 -10 -11 -12 -17 -5 -13 6 4 12 3 12 -2 0 -5 7 -9 16 -9 15 0 15 2 2 11
-13 10 -13 13 -2 24 8 7 14 10 14 6 0 -3 7 -1 15 6 10 8 15 9 15 2 0 -6 -8
-15 -17 -21 -16 -9 -15 -10 4 -8 12 0 20 3 18 6 -3 2 3 10 13 17 13 9 19 9 25
1 4 -7 5 0 1 16 -4 18 0 36 12 55 26 37 27 64 3 52 -10 -6 -21 -15 -24 -20 -3
-6 -18 3 -32 20 -28 34 -36 36 -52 16z m29 -22 c0 -8 3 -13 8 -11 4 2 15 -5
25 -15 17 -17 17 -19 1 -16 -9 2 -19 -2 -21 -9 -3 -7 5 -10 21 -9 22 3 24 1
15 -15 -5 -11 -7 -19 -4 -19 4 0 3 -5 -1 -11 -4 -8 -9 -8 -17 0 -7 7 -15 7
-26 -1 -12 -9 -12 -7 1 7 16 17 16 20 -5 49 -13 20 -15 26 -5 18 11 -9 18 -10
23 -2 3 5 2 10 -4 10 -6 0 -15 9 -21 20 -7 14 -7 20 0 20 5 0 10 -7 10 -16z
m77 -29 c-15 -16 -19 -13 -11 9 3 9 10 13 15 10 5 -3 3 -11 -4 -19z"/>
<path d="M254 836 c1 -8 5 -18 8 -22 4 -3 5 1 4 10 -1 8 -5 18 -8 22 -4 3 -5
-1 -4 -10z"/>
<path d="M420 938 c0 -4 -9 -8 -20 -8 -11 0 -20 -4 -20 -10 0 -14 23 -13 38 2
9 9 12 9 12 0 0 -7 -4 -12 -8 -12 -5 0 -17 -7 -28 -15 -17 -14 -15 -14 14 0
17 8 32 13 32 9 0 -4 6 -1 14 6 8 6 13 17 10 24 -5 13 -44 17 -44 4z"/>
<path d="M2735 940 c3 -5 8 -10 11 -10 2 0 4 5 4 10 0 6 -5 10 -11 10 -5 0 -7
-4 -4 -10z"/>
<path d="M1694 913 c6 -20 -6 -46 -20 -43 -5 1 -10 -3 -12 -8 -2 -6 5 -9 15
-8 13 1 18 -6 17 -26 0 -23 3 -25 18 -17 10 5 18 7 18 3 0 -3 7 -1 15 6 20 17
51 -6 35 -25 -8 -10 -8 -15 1 -21 7 -4 9 -3 5 4 -3 6 2 15 11 21 11 6 13 11 5
11 -7 0 -10 4 -7 10 4 6 16 4 31 -6 13 -9 24 -12 24 -6 0 11 -38 28 -53 24 -5
-1 -6 2 -2 8 4 7 12 7 26 0 10 -6 19 -7 19 -3 0 4 7 -1 15 -11 14 -19 21 -12
16 17 -2 16 17 5 27 -15 6 -13 11 -17 11 -10 1 6 6 12 12 12 5 0 7 -5 3 -11
-4 -8 0 -8 15 0 16 9 21 9 21 -1 1 -7 6 -3 13 10 7 12 16 20 20 16 4 -4 1 -14
-6 -22 -11 -13 -9 -14 11 -1 12 8 22 17 22 22 0 4 4 6 10 2 5 -3 8 -11 6 -18
-1 -7 -1 -9 1 -5 2 4 12 4 21 1 10 -4 7 2 -8 16 -21 19 -22 21 -5 16 11 -4 27
-8 35 -9 8 -2 30 -10 49 -20 18 -10 31 -13 27 -8 -3 5 2 16 11 23 14 12 15 11
10 -11 -4 -14 -4 -19 -1 -12 4 8 12 6 26 -10 11 -13 17 -18 14 -11 -4 6 3 15
15 18 17 6 19 9 8 16 -11 7 -11 9 -1 9 7 0 10 5 7 10 -9 14 -27 1 -21 -15 2
-7 -2 -16 -10 -19 -12 -5 -14 -1 -9 17 4 15 3 18 -3 9 -7 -11 -11 -10 -17 5
-5 10 -9 22 -9 27 -2 17 -26 18 -26 2 0 -18 -42 -16 -48 2 -2 7 -8 12 -13 12
-6 0 -7 -4 -4 -10 3 -5 2 -10 -3 -10 -13 0 -24 29 -16 42 4 6 -5 3 -19 -7 -14
-9 -28 -24 -32 -33 -6 -15 -8 -15 -21 2 -9 13 -14 15 -14 6 0 -9 -11 -4 -28
13 -16 15 -31 24 -35 21 -4 -4 -13 -1 -22 6 -9 7 -18 11 -20 8 -12 -12 30 -34
70 -37 6 -1 3 -6 -5 -11 -9 -6 -18 -6 -24 0 -6 6 -14 3 -21 -7 -12 -16 -40 -9
-30 8 8 13 -30 6 -47 -9 -8 -6 -17 -9 -21 -6 -3 3 -8 -4 -12 -16 -6 -20 -7
-21 -22 -3 -8 10 -12 13 -8 6 3 -8 -2 -11 -15 -8 -11 2 -18 0 -15 -5 3 -5 2
-11 -3 -14 -5 -3 -9 1 -10 9 -4 34 -4 40 -2 50 5 21 0 45 -11 45 -6 0 -8 -8
-5 -17z m363 -37 c0 -8 -6 -12 -12 -10 -7 3 -18 -2 -25 -11 -10 -11 -16 -13
-26 -4 -11 9 -15 7 -20 -5 -6 -15 -8 -15 -19 1 -16 22 -8 38 11 22 8 -6 14 -8
14 -3 0 4 5 3 12 -4 8 -8 17 -6 36 8 29 24 29 24 29 6z m-191 -30 c2 -12 -1
-14 -9 -7 -12 9 -18 11 -38 11 -5 0 -7 4 -4 10 10 15 48 5 51 -14z m84 -8 c0
-12 -14 -10 -28 4 -9 9 -12 9 -12 -2 0 -13 -1 -13 -9 0 -6 8 -8 17 -5 22 6 9
54 -12 54 -24z m170 17 c0 4 7 2 15 -5 10 -9 15 -9 15 -1 0 6 5 11 12 11 8 0
6 -7 -5 -17 -16 -16 -19 -16 -27 -3 -5 8 -10 11 -10 6 0 -6 -5 -5 -11 1 -6 6
-19 9 -28 6 -13 -4 -14 -3 -1 5 10 8 18 8 27 0 7 -6 13 -7 13 -3z"/>
<path d="M2705 913 c4 -10 8 -22 9 -28 1 -5 5 -15 9 -21 4 -7 0 -17 -8 -24 -8
-7 -15 -18 -15 -24 0 -6 8 -2 17 9 12 15 14 16 10 3 -3 -9 1 -22 9 -29 13 -10
14 -8 10 14 -3 15 1 31 10 38 11 9 14 8 14 -3 0 -8 -5 -19 -12 -26 -9 -9 -9
-12 1 -12 7 0 9 -5 5 -12 -5 -7 -3 -8 6 -3 9 6 11 4 5 -5 -6 -9 -4 -11 5 -5 9
5 11 4 6 -3 -5 -8 -2 -10 8 -6 9 3 16 1 16 -6 0 -6 -4 -8 -10 -5 -5 3 -10 2
-10 -4 0 -5 3 -11 8 -14 4 -2 0 -2 -8 0 -8 2 -11 1 -8 -3 4 -3 1 -19 -8 -35
-8 -16 -11 -29 -7 -29 4 0 -2 -6 -12 -14 -11 -8 -26 -12 -35 -9 -13 4 -13 4 0
-6 10 -7 11 -11 3 -11 -7 0 -15 1 -17 3 -2 1 -13 -6 -24 -16 -20 -18 -20 -18
-17 0 2 10 4 22 4 27 1 4 8 5 17 2 9 -3 14 -1 12 5 -2 6 -7 10 -12 9 -12 -2
-30 30 -22 37 3 4 6 1 6 -5 0 -7 4 -12 9 -12 5 0 9 11 9 25 0 25 -12 34 -21
15 -3 -6 -4 -5 -3 2 2 7 9 13 17 13 9 0 14 -12 14 -35 0 -25 5 -36 18 -38 9
-2 17 2 17 8 0 6 -4 9 -8 6 -4 -2 -9 4 -9 15 -1 10 3 19 8 19 5 0 -2 12 -16
27 l-25 28 -25 -27 c-25 -28 -33 -44 -15 -33 6 3 10 1 10 -5 0 -6 -8 -9 -18
-6 -12 4 -26 -1 -37 -14 -17 -19 -19 -19 -39 -3 -18 16 -19 16 -8 1 12 -14 10
-19 -14 -31 -22 -12 -24 -15 -10 -20 10 -4 15 -3 11 3 -3 6 -2 10 2 10 13 0
43 -56 35 -65 -4 -4 3 -3 14 3 12 6 24 8 28 4 4 -3 11 -1 15 7 7 10 10 9 14
-3 4 -11 1 -16 -11 -17 -9 0 -12 -3 -5 -5 7 -3 21 -1 31 5 15 8 23 7 32 -4 7
-8 17 -15 22 -15 5 0 -3 10 -18 23 l-26 23 28 13 c23 10 27 10 17 0 -19 -20
-16 -26 14 -26 21 0 23 1 10 9 -26 14 -10 36 24 33 22 -2 28 0 20 8 -6 6 -11
16 -11 21 0 6 5 5 12 -2 7 -7 16 -12 22 -12 5 0 2 6 -9 13 -11 9 -14 16 -7 20
5 4 8 15 5 25 -3 12 3 22 19 29 13 7 17 12 9 12 -10 1 -11 4 -2 15 10 11 8 16
-8 21 -11 3 -20 12 -18 18 1 7 -4 11 -10 10 -16 -4 -16 2 -3 28 8 13 7 19 0
19 -6 0 -15 10 -20 23 -7 18 -9 18 -9 4 -1 -10 -6 -15 -11 -12 -7 4 -7 12 0
25 8 15 6 17 -13 13 -18 -4 -19 -3 -7 6 13 9 12 11 -4 11 -13 0 -16 -5 -11
-17z m48 -46 c4 3 7 4 7 1 0 -3 -8 -12 -17 -19 -10 -7 -15 -9 -11 -5 4 5 2 16
-5 25 -10 14 -10 14 4 4 9 -7 19 -10 22 -6z m-98 -196 c3 -9 0 -20 -8 -26 -11
-8 -11 -13 5 -29 10 -11 15 -22 12 -25 -3 -3 -10 2 -15 12 -6 10 -15 14 -22
10 -26 -16 -44 -11 -60 17 -10 16 -13 31 -8 34 5 4 12 2 16 -4 8 -13 35 -13
35 1 0 5 -6 7 -12 3 -10 -6 -9 -3 0 8 16 20 49 19 57 -1z m109 -19 c3 -5 -1
-9 -9 -9 -8 0 -12 4 -9 9 3 4 7 8 9 8 2 0 6 -4 9 -8z"/>
<path d="M2615 670 c6 -10 -6 -40 -18 -43 -3 -1 -14 7 -23 18 -15 19 -15 19
-1 -5 15 -25 54 -35 49 -12 -1 7 5 15 13 18 8 4 15 10 15 16 0 5 -4 6 -10 3
-5 -3 -10 -1 -10 4 0 6 -5 11 -11 11 -5 0 -7 -4 -4 -10z"/>
<path d="M595 901 c-3 -5 -2 -12 3 -15 5 -3 9 1 9 9 0 17 -3 19 -12 6z"/>
<path d="M1093 896 c0 -8 11 -11 29 -8 33 5 30 14 -5 18 -13 1 -24 -3 -24 -10z"/>
<path d="M1173 885 c0 -8 5 -11 10 -8 6 4 8 0 4 -10 -4 -11 -2 -14 9 -10 7 3
14 10 14 16 0 5 9 2 20 -8 11 -10 20 -13 20 -8 0 15 -28 36 -39 29 -5 -4 -12
-2 -16 4 -9 15 -22 12 -22 -5z"/>
<path d="M1550 886 c0 -9 5 -16 10 -16 6 0 10 4 10 9 0 6 -4 13 -10 16 -5 3
-10 -1 -10 -9z"/>
<path d="M1719 878 c-8 -15 -8 -19 0 -14 6 4 11 2 11 -5 0 -8 4 -9 13 0 9 7
17 7 24 0 7 -7 9 -3 6 13 -6 30 -39 34 -54 6z"/>
<path d="M1601 871 c-13 -23 -4 -33 19 -21 10 5 20 6 24 3 3 -3 6 -2 6 3 0 12
-21 34 -32 34 -4 0 -12 -8 -17 -19z m29 -5 c0 -2 -7 -7 -16 -10 -8 -3 -12 -2
-9 4 6 10 25 14 25 6z"/>
<path d="M2774 882 c4 -3 14 -7 22 -8 9 -1 13 0 10 4 -4 3 -14 7 -22 8 -9 1
-13 0 -10 -4z"/>
<path d="M1410 839 c0 -5 5 -7 10 -4 6 3 10 8 10 11 0 2 -4 4 -10 4 -5 0 -10
-5 -10 -11z"/>
<path d="M2795 840 c-3 -5 -2 -10 4 -10 5 0 13 5 16 10 3 6 2 10 -4 10 -5 0
-13 -4 -16 -10z"/>
<path d="M32 810 c-8 -14 -7 -22 4 -36 10 -14 14 -15 12 -4 -2 8 4 15 14 15
26 0 28 9 4 27 -21 15 -23 15 -34 -2z"/>
<path d="M2093 818 c1 -7 -4 -12 -11 -10 -8 1 -11 -2 -7 -8 5 -8 11 -8 21 1 7
6 11 15 8 20 -8 13 -14 11 -11 -3z"/>
<path d="M2247 804 c-15 -14 -27 -28 -27 -31 0 -4 12 4 26 18 l26 24 -6 -25
c-4 -14 -4 -20 1 -14 4 7 21 12 36 12 20 0 25 -4 18 -11 -14 -14 -14 -27 1
-27 6 0 8 3 5 7 -4 3 -2 12 3 18 7 8 4 18 -10 30 -11 10 -20 15 -20 10 0 -4
-6 -3 -13 3 -10 8 -20 5 -40 -14z"/>
<path d="M1881 804 c0 -11 3 -14 6 -6 3 7 2 16 -1 19 -3 4 -6 -2 -5 -13z"/>
<path d="M2676 805 c-3 -8 -1 -15 4 -15 13 0 22 18 11 24 -5 3 -11 -1 -15 -9z"/>
<path d="M2814 809 c1 -7 12 -13 24 -14 11 -1 19 2 16 7 -4 5 -12 7 -19 4 -8
-3 -16 -1 -19 5 -2 5 -3 4 -2 -2z"/>
<path d="M116 801 c-3 -5 1 -11 9 -14 9 -4 12 -1 8 9 -6 16 -10 17 -17 5z"/>
<path d="M1180 800 c0 -6 4 -9 9 -6 5 4 12 1 14 -4 3 -6 4 -5 3 2 -3 15 -26
23 -26 8z"/>
<path d="M1745 800 c-3 -6 1 -7 9 -4 18 7 21 14 7 14 -6 0 -13 -4 -16 -10z"/>
<path d="M2700 795 c-11 -14 -9 -20 13 -43 31 -30 46 -26 17 6 -23 25 -27 40
-5 22 8 -7 15 -8 15 -2 0 5 -6 15 -14 21 -10 9 -16 8 -26 -4z"/>
<path d="M1715 791 c-3 -5 -2 -12 3 -15 5 -3 9 1 9 9 0 17 -3 19 -12 6z"/>
<path d="M1413 775 c0 -8 4 -12 9 -9 5 3 6 10 3 15 -9 13 -12 11 -12 -6z"/>
<path d="M1530 780 c0 -5 5 -10 11 -10 5 0 7 5 4 10 -3 6 -8 10 -11 10 -2 0
-4 -4 -4 -10z"/>
<path d="M1670 780 c0 -5 7 -7 15 -4 8 4 15 8 15 10 0 2 -7 4 -15 4 -8 0 -15
-4 -15 -10z"/>
<path d="M2746 773 c-4 -11 -1 -22 8 -29 13 -9 12 -13 -10 -23 -21 -9 -24 -14
-14 -26 6 -8 9 -19 5 -25 -3 -5 -4 -10 -1 -10 8 0 37 59 42 85 5 29 -21 53
-30 28z m7 -68 c-3 -9 -8 -14 -10 -11 -3 3 -2 9 2 15 9 16 15 13 8 -4z"/>
<path d="M157 743 c-10 -10 -8 -23 4 -23 5 0 7 5 3 12 -5 8 -2 9 10 5 10 -4
15 -3 11 3 -7 12 -19 13 -28 3z"/>
<path d="M2375 720 c3 -5 8 -10 11 -10 2 0 4 5 4 10 0 6 -5 10 -11 10 -5 0 -7
-4 -4 -10z"/>
<path d="M2811 691 c-7 -13 -6 -18 4 -18 7 0 11 6 8 14 -4 9 0 11 11 7 9 -3
16 -4 16 -1 0 15 -31 14 -39 -2z"/>
<path d="M2456 687 c-16 -12 -16 -14 -3 -14 9 0 18 6 21 14 3 7 4 13 3 13 -2
0 -11 -6 -21 -13z"/>
<path d="M2541 604 c0 -11 3 -14 6 -6 3 7 2 16 -1 19 -3 4 -6 -2 -5 -13z"/>
<path d="M2748 613 c7 -3 16 -2 19 1 4 3 -2 6 -13 5 -11 0 -14 -3 -6 -6z"/>
<path d="M2587 559 c7 -7 15 -10 18 -7 3 3 -2 9 -12 12 -14 6 -15 5 -6 -5z"/>
</g>
</svg>
